<?xml version="1.0" encoding="UTF-8"?>
<svg xmlns="http://www.w3.org/2000/svg" xmlns:xlink="http://www.w3.org/1999/xlink" viewBox="0 0 47.55 53.93">
  <defs>
    <style>
      .cls-1 {
        fill: url(#linear-gradient);
        opacity: .2;
      }

      .cls-1, .cls-2 {
        mix-blend-mode: multiply;
      }

      .cls-1, .cls-2, .cls-3, .cls-4, .cls-5, .cls-6 {
        stroke-width: 0px;
      }

      .cls-2 {
        fill: url(#linear-gradient-2);
        opacity: .3;
      }

      .cls-3 {
        fill: #0b74b8;
      }

      .cls-7 {
        isolation: isolate;
      }

      .cls-4 {
        fill: #2eaade;
      }

      .cls-5 {
        fill: #ebebeb;
      }

      .cls-6 {
        fill: #fff;
      }
    </style>
    <linearGradient id="linear-gradient" x1="22.99" y1="19.51" x2="12.05" y2="24.8" gradientUnits="userSpaceOnUse">
      <stop offset="0" stop-color="#fff"/>
      <stop offset="1" stop-color="#000"/>
    </linearGradient>
    <linearGradient id="linear-gradient-2" x1="23.77" y1="16.11" x2="38.68" y2="16.11" xlink:href="#linear-gradient"/>
  </defs>
  <g class="cls-7">
    <g id="_レイヤー_2" data-name="レイヤー 2">
      <g id="_編集箇所" data-name="編集箇所">
        <g>
          <g>
            <polygon class="cls-3" points="23.75 53.93 4.33 48.54 0 0 47.55 0 43.22 48.53 23.75 53.93"/>
            <polygon class="cls-4" points="39.51 45.44 43.21 3.97 23.77 3.97 23.77 49.8 39.51 45.44"/>
          </g>
          <g>
            <polygon class="cls-5" points="10.47 28 38.15 15.95 38.68 10 9.94 22.05 10.47 28"/>
            <polygon class="cls-1" points="10.47 28 38.15 15.95 38.68 10 9.94 22.05 10.47 28"/>
            <polygon class="cls-5" points="23.77 10 8.87 10 9.01 11.6 9.4 15.95 23.79 15.95 23.79 10 23.77 10"/>
            <polygon class="cls-6" points="37.61 22.05 23.77 22.05 23.77 28 31.1 28 30.41 35.72 23.77 37.51 23.77 43.71 35.97 40.32 37.61 22.05"/>
            <polygon class="cls-6" points="23.77 16.25 23.77 22.21 38.15 15.95 38.68 10 23.77 16.25"/>
            <polygon class="cls-2" points="23.77 16.25 23.77 22.21 38.15 15.95 38.68 10 23.77 16.25"/>
            <polygon class="cls-5" points="9.94 22.05 10.47 28 23.79 28 23.79 22.05 9.94 22.05"/>
            <polygon class="cls-6" points="38.68 10 23.77 10 23.77 15.94 23.77 15.95 38.13 15.95 38.13 15.95 38.15 15.95 38.68 10"/>
            <polygon class="cls-5" points="23.77 37.52 23.77 37.52 17.14 35.73 16.72 30.98 13.5 30.98 10.74 30.98 11.58 40.32 23.77 43.71 23.77 43.71 23.77 37.52"/>
          </g>
        </g>
      </g>
    </g>
  </g>
</svg>