<?xml version="1.0" encoding="UTF-8"?>
<svg id="_レイヤー_2" data-name="レイヤー 2" xmlns="http://www.w3.org/2000/svg" viewBox="0 0 47.55 53.93">
  <defs>
    <style>
      .cls-1 {
        fill: #f16529;
      }

      .cls-1, .cls-2, .cls-3, .cls-4 {
        stroke-width: 0px;
      }

      .cls-2 {
        fill: #e44d26;
      }

      .cls-3 {
        fill: #ebebeb;
      }

      .cls-4 {
        fill: #fff;
      }
    </style>
  </defs>
  <g id="_編集箇所" data-name="編集箇所">
    <g>
      <g>
        <polygon class="cls-2" points="23.75 53.93 4.33 48.54 0 0 47.55 0 43.22 48.53 23.75 53.93"/>
        <polygon class="cls-1" points="39.51 45.44 43.21 3.97 23.78 3.97 23.78 49.8 39.51 45.44"/>
      </g>
      <polygon class="cls-4" points="23.79 15.87 38.15 15.87 38.68 9.92 23.79 9.92 23.77 9.92 8.87 9.92 10.47 27.92 23.77 27.92 23.79 27.92 31.1 27.92 30.41 35.64 23.77 37.43 23.77 37.44 23.77 37.44 17.14 35.65 16.71 30.9 10.74 30.9 11.57 40.25 23.77 43.63 23.79 43.62 23.79 43.62 35.98 40.25 37.61 21.97 23.79 21.97 23.77 21.97 15.92 21.97 15.37 15.87 23.77 15.87 23.79 15.87"/>
      <g>
        <polygon class="cls-3" points="23.78 37.43 23.77 37.43 23.77 37.44 23.77 37.44 17.14 35.65 16.71 30.9 10.74 30.9 11.57 40.25 23.77 43.63 23.78 43.63 23.78 37.43"/>
        <polygon class="cls-3" points="23.78 27.92 23.78 21.97 23.77 21.97 15.92 21.97 15.37 15.87 23.77 15.87 23.78 15.87 23.78 9.92 23.77 9.92 8.87 9.92 10.47 27.92 23.77 27.92 23.78 27.92"/>
      </g>
    </g>
  </g>
</svg>