<?xml version="1.0" encoding="UTF-8"?>
<svg id="_レイヤー_2" data-name="レイヤー 2" xmlns="http://www.w3.org/2000/svg" viewBox="0 0 47.55 53.93">
  <defs>
    <style>
      .cls-1 {
        fill: #dab92d;
      }

      .cls-1, .cls-2, .cls-3 {
        stroke-width: 0px;
      }

      .cls-2 {
        fill: #ffd83a;
      }

      .cls-3 {
        fill: #fff;
      }
    </style>
  </defs>
  <g id="_編集箇所" data-name="編集箇所">
    <g>
      <g>
        <polygon class="cls-1" points="23.75 53.93 4.33 48.54 0 0 47.55 0 43.22 48.53 23.75 53.93"/>
        <polygon class="cls-2" points="39.51 45.44 43.21 3.97 23.77 3.97 23.77 49.8 39.51 45.44"/>
      </g>
      <polygon class="cls-3" points="24.85 9.92 24.85 27.92 30.8 27.92 30.87 27.92 30.18 35.64 24.85 37.08 24.85 43.26 35.74 40.25 37.38 21.97 30.8 21.97 30.8 15.87 37.9 15.87 37.92 15.87 38.45 9.92 24.85 9.92"/>
      <polygon class="cls-3" points="16.67 9.92 17.57 35.98 15.74 35.55 15.35 30.9 10.5 30.9 11.34 40.25 22.24 43.27 22.24 9.92 16.67 9.92"/>
    </g>
  </g>
</svg>